<svg xmlns="http://www.w3.org/2000/svg" viewBox="0 0 844.51 238.81"><defs><style>.cls-1{fill:#1c3963;}.cls-2{fill:#3266af;}.cls-3{fill:#58595b;}.cls-4{fill:#d1d3d4;}.cls-5{fill:#d2d3d5;}.cls-6{fill:#d3d4d6;}.cls-7{fill:#d4d5d7;}.cls-8{fill:#d4d6d7;}.cls-9{fill:#d5d7d8;}.cls-10{fill:#d6d7d9;}.cls-11{fill:#d7d8da;}.cls-12{fill:#d8d9da;}.cls-13{fill:#d9dadb;}.cls-14{fill:#d9dbdc;}.cls-15{fill:#dadbdd;}.cls-16{fill:#dbdcdd;}.cls-17{fill:#dcddde;}.cls-18{fill:#dddedf;}.cls-19{fill:#dddee0;}.cls-20{fill:#dedfe0;}.cls-21{fill:#dfe0e1;}.cls-22{fill:#e0e1e2;}.cls-23{fill:#e1e2e3;}.cls-24{fill:#e1e2e4;}.cls-25{fill:#e2e3e4;}.cls-26{fill:#e3e4e5;}.cls-27{fill:#e4e5e6;}.cls-28{fill:#e5e6e7;}.cls-29{fill:#e6e7e8;}.cls-30{fill:#fff;}.cls-31{fill:#954721;}.cls-32{fill:#153151;}.cls-33{fill:#e2752a;}.cls-34{fill:#1f4170;}</style></defs><title>Asset 1</title><g id="Layer_2" data-name="Layer 2"><g id="Layer_1-2" data-name="Layer 1"><path class="cls-1" d="M321.61,54.77V71.49H290.07V83h29.54V99.7H290.07v21.66H268V54.77Z"/><path class="cls-1" d="M348.78,54.77v66.59h-22V54.77Z"/><path class="cls-1" d="M383.94,71.19c-2.41,0-4,.74-4,2.69,0,8.16,33.67,3.06,33.67,26.61,0,14.47-12.71,20.87-27.36,20.87-11.32,0-23.93-3.8-32.56-10.39l8-16.13c6.68,5.56,18.18,10.11,24.76,10.11,3.15,0,5.19-1,5.19-3.34,0-8.44-33.66-2.88-33.66-25.69,0-13,10.94-21.15,27.82-21.15,10.3,0,21,3.06,28.29,7.7l-7.79,16.32C399.7,75.18,389.59,71.19,383.94,71.19Z"/><path class="cls-1" d="M440.17,54.77V80.61h20.61V54.77h22v66.59h-22v-24H440.17v24h-22V54.77Z"/><path class="cls-1" d="M551,72.67c-7.79,0-13.44,6.21-13.44,14.84s5.65,15,13.44,15c4.64,0,10.48-2.87,14.75-7.42l12.43,13.27c-7.23,7.88-18.27,13-28.29,13-19.94,0-34.41-14.19-34.41-33.57,0-19.11,14.84-33,35.25-33a39.12,39.12,0,0,1,27.45,11.87L565.76,81.39C561.86,76.1,556,72.67,551,72.67Z"/><path class="cls-1" d="M619.8,121.36l-8-17.29h-8.27v17.29h-22V54.77h32.21c18,0,28.4,8.65,28.4,23.84,0,9.69-3.7,16.91-10.54,21.09l13.11,21.66Zm-16.25-34h10.17c4.75,0,7.5-2.94,7.5-8.07,0-4.94-2.75-7.79-7.5-7.79H603.55Z"/><path class="cls-1" d="M704.88,54.77V71.49H670.59v8.17h31.16V96.38H670.59v8.26h35.15v16.72H648.55V54.77Z"/><path class="cls-1" d="M768.6,54.77V71.49H734.31v8.17h31.16V96.38H734.31v8.26h35.15v16.72H712.27V54.77Z"/><path class="cls-1" d="M818.2,121.36,804.33,98.47l-6.46,7.22v15.67h-22V54.77h22V77.85l19.86-23.08h25.36L819.34,81.56l25.17,39.8Z"/><path class="cls-2" d="M300,177.89H284.32l-2.14,5.89H268l17.6-41.67h14.15l16.94,41.67H302ZM296.57,168l-4.28-12.18L287.89,168Z"/><path class="cls-2" d="M330.63,142.11l16.47,21.4v-21.4h12.48v41.67H348.05L331.64,162.5v21.28H319.1V142.11Z"/><path class="cls-2" d="M379.31,142.11v41.67H365.52V142.11Z"/><path class="cls-2" d="M399.82,142.11l9.1,21.75L418,142.11h14.57v41.67h-12V161l-7.14,18.79h-9L397.26,161v22.83h-12V142.11Z"/><path class="cls-2" d="M466.87,177.89H451.24l-2.14,5.89H435l17.6-41.67h14.14l16.95,41.67H469ZM463.48,168l-4.28-12.18L454.8,168Z"/><path class="cls-2" d="M499.8,142.11v30.2h17.36v11.47H486V142.11Z"/><path class="cls-2" d="M552.35,142.11v16.17h12.9V142.11H579v41.67H565.25v-15h-12.9v15H538.56V142.11Z"/><path class="cls-2" d="M628.68,162.91c0,12.37-9.63,21.46-22.89,21.46s-22.89-9-22.89-21.46,9.63-21.22,22.89-21.22S628.68,150.61,628.68,162.91Zm-31.63.06c0,5.71,4.16,9.93,8.92,9.93s8.56-4.22,8.56-9.93-3.81-9.81-8.56-9.81S597.05,157.27,597.05,163Z"/><path class="cls-2" d="M649.42,152c-1.55,0-2.56.48-2.56,1.73,0,5.23,21.58,2,21.58,17.06,0,9.27-8.14,13.38-17.53,13.38-7.26,0-15.34-2.44-20.87-6.66l5.11-10.35c4.28,3.57,11.65,6.48,15.88,6.48,2,0,3.32-.65,3.32-2.14,0-5.41-21.58-1.84-21.58-16.46,0-8.33,7-13.56,17.84-13.56a35.42,35.42,0,0,1,18.13,4.94l-5,10.46C659.53,154.59,653.05,152,649.42,152Z"/><path class="cls-2" d="M708.63,157c0,10.1-6.24,15.93-17.07,15.93H685.8v10.82H672V142.11h19.55C702.39,142.11,708.63,147.52,708.63,157Zm-13.08.41c0-3.09-1.73-4.87-4.7-4.87H685.8v9.93h5.05C693.82,162.5,695.55,160.65,695.55,157.44Z"/><path class="cls-2" d="M726.58,142.11v41.67h-13.8V142.11Z"/><path class="cls-2" d="M767.36,142.11V153H755.47v30.8h-13.8V153H729.84V142.11Z"/><path class="cls-2" d="M794.22,177.89H778.59l-2.14,5.89H762.3l17.6-41.67h14.15L811,183.78H796.3ZM790.83,168l-4.28-12.18L782.16,168Z"/><path class="cls-2" d="M827.15,142.11v30.2h17.36v11.47H813.36V142.11Z"/><path class="cls-3" d="M119.3,213.64a94.24,94.24,0,1,1,94.23-94.23A94.34,94.34,0,0,1,119.3,213.64Zm0-184.5a90.27,90.27,0,1,0,90.26,90.27A90.37,90.37,0,0,0,119.3,29.14Z"/><circle class="cls-4" cx="119.3" cy="119.41" r="92.9"/><circle class="cls-5" cx="119.3" cy="119.41" r="90.09"/><circle class="cls-6" cx="119.3" cy="119.41" r="87.27"/><circle class="cls-7" cx="119.3" cy="119.41" r="84.45"/><circle class="cls-8" cx="119.3" cy="119.41" r="81.63"/><circle class="cls-9" cx="119.3" cy="119.41" r="78.82"/><circle class="cls-10" cx="119.3" cy="119.41" r="76"/><circle class="cls-11" cx="119.3" cy="119.41" r="73.18"/><circle class="cls-12" cx="119.3" cy="119.41" r="70.36"/><circle class="cls-13" cx="119.3" cy="119.41" r="67.55"/><circle class="cls-14" cx="119.3" cy="119.41" r="64.73"/><circle class="cls-15" cx="119.3" cy="119.41" r="61.91"/><circle class="cls-16" cx="119.3" cy="119.41" r="59.09"/><circle class="cls-17" cx="119.3" cy="119.41" r="56.27"/><circle class="cls-18" cx="119.3" cy="119.41" r="53.46"/><circle class="cls-19" cx="119.3" cy="119.41" r="50.64"/><circle class="cls-20" cx="119.3" cy="119.41" r="47.82"/><circle class="cls-21" cx="119.3" cy="119.41" r="45"/><circle class="cls-22" cx="119.3" cy="119.41" r="42.19"/><circle class="cls-23" cx="119.3" cy="119.41" r="39.37"/><circle class="cls-24" cx="119.3" cy="119.41" r="36.55"/><circle class="cls-25" cx="119.3" cy="119.41" r="33.73"/><circle class="cls-26" cx="119.3" cy="119.41" r="30.91"/><circle class="cls-27" cx="119.3" cy="119.41" r="28.1"/><circle class="cls-28" cx="119.3" cy="119.41" r="25.28"/><circle class="cls-28" cx="119.3" cy="119.41" r="22.46"/><circle class="cls-29" cx="119.3" cy="119.41" r="19.64"/><path class="cls-30" d="M221.2,111.12c-.31,0-.63,0-.95,0-1.78,0-3.91.23-6.61.51l-2.22.23-.52,0a5.72,5.72,0,0,1-1.78-.33l-.09,0a41.43,41.43,0,0,0-7.8,3.24,38.55,38.55,0,0,0-7.06,4.8,43.31,43.31,0,0,0-6,6.25,43,43,0,0,1,5.2-7.07,39.83,39.83,0,0,1,6.64-5.92,44.15,44.15,0,0,1,5.72-3.46,23.76,23.76,0,0,1-3.77-4.72c-.28,0-.55.09-.82.16a21.76,21.76,0,0,0-5.41,2.11,26.13,26.13,0,0,0-4.82,3.57c-.78.66-1.41,1.46-2.14,2.2s-1.28,1.61-1.93,2.42c.48-.91.94-1.85,1.45-2.77s1.08-1.81,1.74-2.63a28.14,28.14,0,0,1,4.35-4.73,24.94,24.94,0,0,1,5.6-3.51l.14,0c-.63-1.21-1.18-2.4-1.65-3.49a27.14,27.14,0,0,0-3.55,1.43,20.13,20.13,0,0,0-3.61,2.35,13.92,13.92,0,0,0-2.82,3.36,14.33,14.33,0,0,1,2.06-4.07,21.34,21.34,0,0,1,3.22-3.37,29.92,29.92,0,0,1,3.58-2.52c-.21-.59-.39-1.11-.51-1.5a4.5,4.5,0,0,1-.79-.94,30.62,30.62,0,0,0-8.31,4.53c-6.52,4.9-10.31,19.21-10.73,20.9-.19.57-4.83,13.93-26.24,14.31h-.54c-6.18,0-11.17-1.92-14.83-5.71-6.61-6.83-6.3-17.18-6.28-17.64,0,0,.28-4.06.85-9.73l.36-3.53,3.1,1.71.53.28c.06-.1.14-.19.2-.28A27.53,27.53,0,0,0,136,94.14a21.46,21.46,0,0,0,2-7.09,22.59,22.59,0,0,0-.33-7.2c-.14-.63-.3-1.24-.47-1.86l-.33.27-4.32,3.27.58-5.39C134.23,65.63,126.65,54.38,123,49a21.64,21.64,0,0,1-2-3.28,3.85,3.85,0,0,0-2-1.92,79.78,79.78,0,0,1-8,.48q-.84,0-1.59,0c-1.57,1.48-1.93,4.7-1.93,4.73l0,.17-.13.12c-4.73,4.24-8.43,12-8.46,12.09a94.31,94.31,0,0,0-7.07,22.42l-.11.62-.55-.3c-.51-.27-7-4.4-13-8.87a22.51,22.51,0,0,0-3,3.7,17.51,17.51,0,0,0-2.54,7.4A26.09,26.09,0,0,0,73,94.44l1,4a36.84,36.84,0,0,0,16.14-4.92l.64-.39,0,.75c.41,6.71,2.85,23.85,16.77,38,9.09,9.26,19.74,14,31.67,14,21.23,0,39.45-15,39.63-15.21l.17-.13.21,0a52,52,0,0,0,9.21.8c6.27,0,14.85-1.17,20.09-6.74a62.14,62.14,0,0,1,14.92-12.06Z"/><path class="cls-30" d="M140.71,75.07a30.84,30.84,0,0,1,.85,4.15,22.78,22.78,0,0,1-.48,8.39,21.92,21.92,0,0,1-6,10.41,19.56,19.56,0,0,0,2,1,6.37,6.37,0,0,0,1.26.17,3.64,3.64,0,0,0,.6-.05c2.08-1.63,10.87-9.75,3.29-25.86-.47.55-1,1.11-1.56,1.67C140.68,75,140.7,75,140.71,75.07Z"/><path class="cls-31" d="M230.84,86.17H163.62A11.21,11.21,0,0,1,152.43,75V7.76A7.77,7.77,0,0,0,144.67,0H93.8A7.77,7.77,0,0,0,86,7.76v71.6l.37.34a22.41,22.41,0,0,0,4.39,3.16l1.38.73.26-1.53a66,66,0,0,1,7-20.43c0-.08,3.69-7.75,8.31-11.9l.33-.29,0-.43c.09-.86.64-3.52,1.93-4.49a1.74,1.74,0,0,1,1.45-.32c3.72.65,10.2.1,11.64,0a4.93,4.93,0,0,1,2.6,2.57,21.88,21.88,0,0,0,1.75,2.93C130.92,55,138,65.94,136.75,76.25l-.32,2.59,2.1-1.54a25.8,25.8,0,0,0,6.06-5.79c8.9,17.81-1.9,26.41-3.32,27.44-1.46.39-3.59-.19-6.18-1.68l-1.48-.84-.2,1.69c-.63,5.35-1,9.12-1,9.19,0,.4-.44,9.81,5.46,16,3.28,3.46,7.83,5.21,13.54,5.21h0c19.5,0,23.84-11.86,24-12.45,0-.15,4-15,10.87-20a28.72,28.72,0,0,1,9.71-4.73,1.87,1.87,0,0,0-.2,1c.16,2,4.48,13.47,10,18.06a7.68,7.68,0,0,0,5.65,2.09l2.41-.25c4.36-.46,7-.74,9.23-.22a62.78,62.78,0,0,0-15.06,12.19c-9,9.58-28.48,5.78-28.67,5.74l-.54-.11-.41.35c-1.61,1.34-39.71,32.56-70.39,1.29C98,121.21,92.45,109.22,91.65,95.84l-.11-1.68L90,94.9c-1,.49-2.1,1-3.29,1.48l-.7.29v9a46.9,46.9,0,0,0,46.84,46.84h98a7.77,7.77,0,0,0,7.75-7.76V93.92A7.76,7.76,0,0,0,230.84,86.17Zm5.5,58.62a5.51,5.51,0,0,1-5.5,5.51h-98a44.65,44.65,0,0,1-44.59-44.59V98.17l1.23-.54c1.18,13.26,6.87,25.18,16.93,35.43,30.38,31,68.58,2.68,73-.8,3.35.59,21.13,3.19,30.24-6.5s16.59-12.79,16.67-12.82l2.29-.9-2.18-1.15c-3.57-1.85-6.85-1.51-12.83-.88l-2.39.25a5.52,5.52,0,0,1-4-1.58c-4.93-4.12-8.79-14.5-9.14-16.34.65-.38,3.07-.52,5.32-.31l3.89.37L204.25,90c-3.76-2.89-11.84-1.12-19.22,4.22-7.54,5.46-11.56,20.63-11.7,21.18s-4.07,10.85-21.89,10.86h0c-5.06,0-9.06-1.51-11.9-4.49-5.23-5.5-4.86-14.27-4.86-14.32s.27-3,.78-7.46c2.64,1.27,4.87,1.61,6.66,1l.27-.14c.16-.1,15.31-10.59,3.18-32.34l-1.33-2.36-.74,2.63s-.59,2-4.34,5.12c.1-10.28-6.48-20.44-9.77-25.52a23.94,23.94,0,0,1-1.53-2.51,7.29,7.29,0,0,0-4.18-4l-.23-.08-.25,0c-.07,0-7.49.75-11.3.08a4,4,0,0,0-3.2.74c-1.93,1.46-2.57,4.46-2.75,5.62-4.81,4.5-8.38,12-8.48,12.23a66.43,66.43,0,0,0-7,19.5,20.74,20.74,0,0,1-2.23-1.71V7.76A5.51,5.51,0,0,1,93.8,2.25h50.87a5.51,5.51,0,0,1,5.51,5.51V75a13.45,13.45,0,0,0,13.44,13.44h67.22a5.52,5.52,0,0,1,5.5,5.51Z"/><path class="cls-32" d="M82.61,105.71V97.9l-1.42.39a25.58,25.58,0,0,1-11.33.82,34.7,34.7,0,0,1-5-11.94l-.18-.9H7.76A7.77,7.77,0,0,0,0,94v50.87a7.77,7.77,0,0,0,7.76,7.76H75a11.21,11.21,0,0,1,11.2,11.19v67.22a7.76,7.76,0,0,0,7.75,7.75h50.87a7.76,7.76,0,0,0,7.76-7.75V156H132.88A50.33,50.33,0,0,1,82.61,105.71ZM150.3,231.06a5.51,5.51,0,0,1-5.51,5.51H93.92a5.52,5.52,0,0,1-5.51-5.51V163.84A13.45,13.45,0,0,0,75,150.4H7.76a5.51,5.51,0,0,1-5.51-5.51V94a5.51,5.51,0,0,1,5.51-5.5H62.82a36.17,36.17,0,0,0,5.47,12.28l.26.33.41.09a26.22,26.22,0,0,0,11.4-.4v4.89a52.58,52.58,0,0,0,52.52,52.52H150.3Z"/><path class="cls-33" d="M230.84,87.29H163.62A12.33,12.33,0,0,1,151.3,75V7.76a6.64,6.64,0,0,0-6.63-6.64H93.8a6.64,6.64,0,0,0-6.63,6.64v71.1a20.82,20.82,0,0,0,4.16,3,66.68,66.68,0,0,1,7.1-20.72s3.72-7.9,8.58-12.26c0,0,.68-6.51,4.7-5.8S123.32,43,123.32,43a6.21,6.21,0,0,1,3.49,3.32c.89,2.36,12.73,16.69,11.06,30.06,6.06-4.44,6.72-7.28,6.72-7.28,11.76,21.1-2.82,30.87-2.82,30.87-2.17.7-5-.43-7.24-1.73-.64,5.4-1,9.12-1,9.12s-1,20,17.88,20,22.95-11.61,22.95-11.61,4-15.35,11.3-20.64,14.79-6.61,17.87-4.24c0,0-6.74-.65-6.58,1.35s6.78,19.88,14.39,19.12,10.91-1.4,14.59.51c0,0-7.53,2.93-17.08,13.1s-29.72,6.07-29.72,6.07-40.13,33.61-71.91,1.22c-11.79-12-16-24.91-16.73-36.37-1,.5-2.14,1-3.35,1.51v8.29a45.77,45.77,0,0,0,45.71,45.71h98a6.64,6.64,0,0,0,6.63-6.63V93.92A6.64,6.64,0,0,0,230.84,87.29Z"/><path class="cls-34" d="M81.48,105.71V99.37a26.42,26.42,0,0,1-12.29.75,35.1,35.1,0,0,1-5.46-12.73h-56A6.65,6.65,0,0,0,1.12,94v50.87a6.64,6.64,0,0,0,6.64,6.63H75a12.33,12.33,0,0,1,12.32,12.32v67.22a6.64,6.64,0,0,0,6.63,6.63h50.87a6.63,6.63,0,0,0,6.63-6.63V157.11H132.88A51.46,51.46,0,0,1,81.48,105.71Z"/><path class="cls-30" d="M71.71,94.77l-.57-2.1-.29-1-.16-1.08c-.11-.73-.24-1.45-.31-2.18l0-2.23a20,20,0,0,1,2.3-8.67,16.33,16.33,0,0,1,3-4.11c-.52-.4-1-.8-1.51-1.2-5.1.91-7.86,5.61-8.19,10.44-.51,7.26,4.61,15.68,5.54,16h.4c.27,0,.72,0,1.31,0C72.71,97.29,72.15,96.05,71.71,94.77Z"/></g></g></svg>