<?xml version="1.0" encoding="utf-8"?>
<!-- Generator: Adobe Illustrator 22.0.0, SVG Export Plug-In . SVG Version: 6.00 Build 0)  -->
<svg version="1.1" xmlns="http://www.w3.org/2000/svg" xmlns:xlink="http://www.w3.org/1999/xlink" x="0px" y="0px"
	 viewBox="0 0 131.5 131.9" style="enable-background:new 0 0 131.5 131.9;" xml:space="preserve">
<style type="text/css">
	.st0{display:none;}
	.st1{display:inline;fill:#FFFFFF;}
	.st2{display:inline;fill:#F0F0F0;}
	.st3{fill:#29ABE2;}
	.st4{opacity:0.5;fill:#29ABE2;}
	.st5{fill:#8CC63F;}
	.st6{opacity:0.5;}
	.st7{opacity:0.5;fill:#8CC63F;}
	.st8{fill:#F15A24;}
	.st9{opacity:0.5;fill:#F15A24;}
	.st10{fill:#4B4B4B;}
</style>
<g id="Background" class="st0">
	<rect x="-48.1" y="-48.2" class="st1" width="266.7" height="266.7"/>
	<rect x="218.6" y="-48.2" class="st2" width="266.7" height="266.7"/>
	<rect x="485.3" y="-48.2" class="st1" width="266.7" height="266.7"/>
	<rect x="-48.1" y="218.5" class="st2" width="266.7" height="266.7"/>
	<rect x="218.6" y="218.5" class="st1" width="266.7" height="266.7"/>
	<rect x="485.3" y="218.5" class="st2" width="266.7" height="266.7"/>
	<rect x="-48.1" y="485.1" class="st1" width="266.7" height="266.7"/>
	<rect x="218.6" y="485.1" class="st2" width="266.7" height="266.7"/>
	<rect x="485.3" y="485.1" class="st1" width="266.7" height="266.7"/>
</g>
<g id="Objects">
	<g>
		<path class="st3" d="M102.8,235.9c-12.2,0-23,6.1-29.4,15.5c0,0-2.2,3.3-5.6,3.3c-3.4,0-5.6-3.3-5.6-3.3
			c-6.5-9.3-17.2-15.5-29.4-15.5c-19.7,0-35.7,16-35.7,35.7c0,4.7,0.9,9.1,2.5,13.2c10,31.1,54.8,67.6,68.2,68.9
			c13.5-1.3,58.2-37.9,68.2-68.9c1.6-4.1,2.5-8.5,2.5-13.2C138.5,251.9,122.5,235.9,102.8,235.9z M69.3,273.6
			c1.2-5.8,6.2-9.7,11.2-8.7c5,1,8.1,6.6,6.9,12.4c-1.2,5.8-6.2,9.7-11.2,8.7C71.2,285,68.1,279.4,69.3,273.6z M54.8,264.9
			c5-1,10,2.9,11.2,8.7c1.2,5.8-1.9,11.4-6.9,12.4c-5,1-10-2.9-11.2-8.7C46.7,271.5,49.8,265.9,54.8,264.9z M31.8,294.7
			c-2.4-5.4-0.6-11.5,4.1-13.6c4.7-2.1,10.4,0.7,12.8,6.1c2.4,5.4,0.6,11.5-4.1,13.6C39.9,302.9,34.2,300.1,31.8,294.7z M83.7,331.2
			c-5.8,0-10.6-3.9-12-9.2c-0.5-0.6-1.7-1.5-4-1.5c-2.3,0-3.5,0.9-4,1.5c-1.4,5.3-6.2,9.2-12,9.2c-6.9,0-12.5-5.6-12.5-12.5
			c0-5.7,3.8-10.4,9-11.9c2.4-1.5,5.7-4.2,7.3-8.3c2.8-7,8-8.3,12.1-8.3c4,0,9.3,1.3,12.1,8.3c1.6,4.2,4.9,6.8,7.3,8.3
			c5.2,1.5,9,6.2,9,11.9C96.1,325.7,90.6,331.2,83.7,331.2z M103.6,294.7c-2.4,5.4-8.1,8.2-12.8,6.1c-4.7-2.1-6.5-8.1-4.1-13.6
			c2.4-5.4,8.1-8.2,12.8-6.1C104.1,283.1,106,289.2,103.6,294.7z"/>
		<path class="st4" d="M135.9,284.8c1.6-4.1,2.5-8.5,2.5-13.2c0-11.2-5.1-21.1-13.1-27.7l-49.2,49.2c1.4,1.2,2.6,3,3.6,5.4
			c1.6,4.2,4.9,6.8,7.3,8.3c5.2,1.5,9,6.2,9,11.9c0,6.9-5.6,12.5-12.5,12.5c-5.8,0-10.6-3.9-12-9.2c-0.5-0.6-1.7-1.5-4-1.5
			c-2.3,0-3.5,0.9-4,1.5c-1.4,5.3-6.2,9.2-12,9.2c-3.7,0-7.1-1.7-9.4-4.3l-6.6,6.6c13,11.5,25.8,19.6,32,20.2
			C81.2,352.4,125.9,315.9,135.9,284.8z M90.8,300.8c-4.7-2.1-6.5-8.1-4.1-13.6c2.4-5.4,8.1-8.2,12.8-6.1c4.7,2.1,6.5,8.1,4.1,13.6
			C101.2,300.1,95.5,302.9,90.8,300.8z"/>
	</g>
	<g>
		<g>
			<g>
				<path class="st5" d="M291.4,275.4c7-1.4,11.4-9.3,9.7-17.5c-1.7-8.2-8.8-13.7-15.8-12.2c-7,1.4-11.4,9.3-9.7,17.5
					C277.3,271.3,284.3,276.8,291.4,275.4z"/>
				<path class="st5" d="M270.9,296.2c6.6-2.9,9.2-11.4,5.8-19.1c-3.4-7.7-11.4-11.5-18-8.6c-6.6,2.9-9.2,11.4-5.8,19.1
					C256.3,295.2,264.3,299.1,270.9,296.2z"/>
				<path class="st5" d="M315.3,275.4c7,1.4,14.1-4,15.8-12.2c1.7-8.2-2.6-16-9.7-17.5c-7-1.4-14.1,4-15.8,12.2
					C304,266.1,308.3,273.9,315.3,275.4z"/>
				<path class="st5" d="M348,268.5c-6.6-2.9-14.6,1-18,8.6c-3.4,7.7-0.8,16.2,5.8,19.1c6.6,2.9,14.6-1,18-8.6
					C357.2,279.9,354.6,271.4,348,268.5z"/>
			</g>
			<path class="st5" d="M330.6,304.7c-3.4-2.1-8-5.8-10.3-11.7c-3.9-9.9-11.3-11.7-17-11.7c-5.7,0-13.1,1.8-17,11.7
				c-2.3,5.9-6.9,9.6-10.3,11.7c-7.3,2.1-12.7,8.8-12.7,16.8c0,9.7,7.8,17.5,17.5,17.5c8.1,0,19.2-5.4,22.5-5.4
				c3.2,0,14.4,5.4,22.5,5.4c9.7,0,17.5-7.8,17.5-17.5C343.3,313.5,337.9,306.8,330.6,304.7z M320.6,317.5h-10.8l0,10.8H297v-10.8
				h-10.8v-12.8H297v-10.8h12.8v10.8h10.8V317.5z"/>
		</g>
		<g class="st6">
			<g>
				<path class="st5" d="M348,268.5c-6.6-2.9-14.6,1-18,8.6c-3.4,7.7-0.8,16.2,5.8,19.1c6.6,2.9,14.6-1,18-8.6
					C357.2,279.9,354.6,271.4,348,268.5z"/>
			</g>
			<path class="st5" d="M343.3,321.5c0-8-5.4-14.7-12.7-16.8c-3.4-2.1-8-5.8-10.3-11.7c-1.2-3.1-2.8-5.4-4.6-7.1l-8,8h2v10.8h10.8
				v12.8h-10.8l0,10.8H297v-10.8h-10.8v-2l-18,18c3.2,3.4,7.7,5.5,12.7,5.5c8.1,0,19.2-5.4,22.5-5.4c3.2,0,14.4,5.4,22.5,5.4
				C335.5,339,343.3,331.1,343.3,321.5z"/>
		</g>
	</g>
	<g>
		<path class="st5" d="M-136.2,482c-11,0-20.6,5.5-26.4,13.9c0,0-2,2.9-5,2.9c-3.1,0-5-2.9-5-2.9c-5.8-8.4-15.5-13.9-26.4-13.9
			c-17.7,0-32.1,14.3-32.1,32.1c0,4.2,0.8,8.2,2.3,11.8c3.8,11.7,13.1,24.3,23.5,35.1c1.6-4.2,2.4-8.6-0.2-10.5
			c-5.4-3.9-3.7-12-2.6-15.3c1.1-3.3,0.1-5.5,0.1-5.5c-3.4,10.6-7.8,9.4-7.8,9.4s0.1-8-1.6-11c-1.7-3-4-5.9-2.4-9.4
			c1.5-3.5,8.1-1.8,10.3-3.2c2.1-1.5,4.4-0.4,4.4-0.4c2.6-2.2,12.4-1.2,12.4-1.2s9.8-1,12.4,1.2c0,0,2.3-1.1,4.4,0.4
			c2.1,1.5,8.7-0.3,10.3,3.2c1.5,3.5-0.8,6.4-2.5,9.4c-1.7,3-1.6,11-1.6,11s-4.4,1.1-7.8-9.4c0,0-1,2.2,0.1,5.5
			c1.1,3.3,2.8,11.4-2.6,15.3c-3.9,2.8,3.6,24.1,8.2,36.1c1.7,0.7,3.2,1.1,4.3,1.2c0.6-0.1,1.3-0.2,2.1-0.4
			c15.5-22.7,11.5-34.9,11.5-34.9s-1.8-3-5.7-2.5l0.6-0.8l-2.1-0.1l1.5-1.8h-1.5l1.2-1.5l-3.1-0.6l1.3-1l-1-1c0,0,2.7-0.8,2.5-3.9
			c-0.1-2.3-0.1-4.8,0.7-7.1c0.3-0.9-0.9-12.5,0-13.8c0.9-1.4,9.3,6.6,9.3,6.6s1.7-1.9,8.5-1.9c6.8,0,8.5,1.9,8.5,1.9s8.3-8,9.3-6.6
			c0.8,1.3-0.3,12.9,0,13.8c0.8,2.3,0.9,4.8,0.7,7.1c-0.2,3.1,2.5,3.9,2.5,3.9l-1,1l1.3,1l-3.1,0.6l1.2,1.5l-1.5,0l1.5,1.8l-2.1,0.1
			l0.6,0.8c-3.9-0.5-5.7,2.5-5.7,2.5s-0.8,3.3,0.2,8.3c10.3-10.7,19.5-23.2,23.3-34.9c1.5-3.7,2.3-7.6,2.3-11.8
			C-104.1,496.3-118.5,482-136.2,482z"/>
		<path class="st7" d="M-154.1,552.4c0,0-1.8-3-5.7-2.5l0.6-0.8l-2.1-0.1l1.5-1.8h-1.5l1.2-1.5l-3.1-0.6l1.3-1l-1-1
			c0,0,2.7-0.8,2.5-3.9c-0.1-2.3-0.1-4.8,0.7-7.1c0.2-0.5-0.2-5.2-0.3-9l-9.4,9.4c-0.4,3.1-0.4,6.3-0.4,6.3s-1.8,0.5-4-1.9l-2.7,2.7
			c0.4,3.6,0,8.1-3.6,10.6c-3.9,2.8,3.6,24.1,8.2,36.1c1.7,0.7,3.2,1.1,4.3,1.2c0.6-0.1,1.3-0.2,2.1-0.4
			C-150,564.6-154.1,552.4-154.1,552.4z"/>
		<path class="st7" d="M-106.4,525.9c1.5-3.7,2.3-7.6,2.3-11.8c0-12.6-7.3-23.5-17.9-28.8l-34.6,34.6c2.7,2,6.1,5.2,6.1,5.2
			s1.7-1.9,8.5-1.9c6.8,0,8.5,1.9,8.5,1.9s8.3-8,9.3-6.6c0.8,1.3-0.3,12.9,0,13.8c0.8,2.3,0.9,4.8,0.7,7.1c-0.2,3.1,2.5,3.9,2.5,3.9
			l-1,1l1.3,1l-3.1,0.6l1.2,1.5l-1.5,0l1.5,1.8l-2.1,0.1l0.6,0.8c-3.9-0.5-5.7,2.5-5.7,2.5s-0.8,3.3,0.2,8.3
			C-119.4,550.1-110.2,537.5-106.4,525.9z"/>
	</g>
	<g>
		<g>
			<g>
				<path class="st3" d="M-191.8,52c7-1.4,11.3-9.2,9.6-17.3c-1.7-8.1-8.7-13.5-15.6-12.1c-7,1.4-11.3,9.2-9.6,17.3
					C-205.7,48-198.7,53.4-191.8,52z"/>
				<path class="st3" d="M-212.1,72.7c6.5-2.9,9.1-11.3,5.7-18.9c-3.3-7.6-11.3-11.4-17.8-8.6c-6.5,2.9-9.1,11.3-5.7,18.9
					C-226.6,71.7-218.6,75.5-212.1,72.7z"/>
				<path class="st3" d="M-168,52c7,1.4,14-4,15.7-12.1c1.7-8.1-2.6-15.9-9.6-17.3c-7-1.4-14,4-15.6,12.1
					C-179.2,42.8-174.9,50.6-168,52z"/>
				<path class="st3" d="M-135.6,45.2c-6.5-2.9-14.5,1-17.8,8.6c-3.3,7.6-0.8,16.1,5.7,18.9c6.5,2.9,14.5-1,17.8-8.6
					C-126.5,56.5-129.1,48-135.6,45.2z"/>
			</g>
			<path class="st3" d="M-152.8,81.1c-3.3-2.1-7.9-5.8-10.2-11.6c-3.9-9.8-11.2-11.6-16.8-11.6c-5.6,0-13,1.8-16.8,11.6
				c-2.3,5.8-6.8,9.5-10.2,11.6c-7.3,2.1-12.6,8.7-12.6,16.6c0,9.6,7.8,17.4,17.4,17.4c3.5,0,7.5-1,11.2-2.1
				c0.7-1.1,6-10.1,2.7-12.5c-3.6-2.6-2.4-7.9-1.7-10.1c0.7-2.2,0.1-3.6,0.1-3.6c-2.2,7-5.1,6.2-5.1,6.2s0-5.2-1.1-7.2
				c-1.1-2-2.6-3.9-1.6-6.2c1-2.3,5.3-1.2,6.8-2.1c1.4-1,2.9-0.3,2.9-0.3c1.7-1.5,8.2-0.8,8.2-0.8s6.5-0.7,8.2,0.8
				c0,0,1.5-0.7,2.9,0.3c1.4,1,5.8-0.2,6.8,2.1c1,2.3-0.5,4.2-1.6,6.2c-1.1,2-1.1,7.2-1.1,7.2s-2.9,0.8-5.1-6.2c0,0-0.7,1.5,0.1,3.6
				c0.7,2.2,1.9,7.5-1.7,10.1c-3.4,2.4,2,11.3,2.7,12.5c3.7,1.1,7.8,2.1,11.2,2.1c9.6,0,17.4-7.8,17.4-17.4
				C-140.2,89.8-145.6,83.2-152.8,81.1z"/>
		</g>
		<g class="st6">
			<g>
				<path class="st3" d="M-129.8,64.1c3.3-7.6,0.8-16.1-5.7-18.9c-3.9-1.7-8.4-1-12.1,1.5l-4.1,4.1c-0.6,0.9-1.2,1.9-1.7,3
					c-3.3,7.6-0.8,16.1,5.7,18.9C-141.2,75.5-133.2,71.7-129.8,64.1z"/>
			</g>
			<path class="st3" d="M-188.2,100.5c-3.6-2.6-2.4-7.9-1.7-10.1c0.2-0.6,0.3-1.2,0.3-1.7l-2,2c-0.7,1.1-1.4,1.7-2,2l-18.9,18.9
				c2.9,2.2,6.5,3.5,10.4,3.5c3.5,0,7.5-1,11.2-2.1C-190.2,111.8-184.9,102.9-188.2,100.5z"/>
			<path class="st3" d="M-140.2,97.7c0-7.9-5.3-14.6-12.6-16.6c-3.3-2.1-7.9-5.8-10.2-11.6c-0.7-1.9-1.6-3.5-2.6-4.8l-11.6,11.6
				c2,0,4.5,0.1,5.5,0.9c0,0,1.5-0.7,2.9,0.3c1.4,1,5.8-0.2,6.8,2.1c1,2.3-0.5,4.2-1.6,6.2c-1.1,2-1.1,7.2-1.1,7.2s-2.9,0.8-5.1-6.2
				c0,0-0.7,1.5,0.1,3.6c0.7,2.2,1.9,7.5-1.7,10.1c-3.4,2.4,2,11.3,2.7,12.5c3.7,1.1,7.8,2.1,11.2,2.1
				C-148,115.1-140.2,107.3-140.2,97.7z"/>
		</g>
	</g>
	<g>
		<path class="st8" d="M-167.6,247.8c-27.9,0-50.6,22.6-50.6,50.6c0,20,11.6,37.3,28.4,45.5c5.6-12.9,3.4-22.4,3.4-22.4
			s-2.8-4.7-8.9-3.9l0.9-1.2l-3.3-0.2l2.3-2.8h-2.3l1.9-2.3l-4.9-0.9l2-1.5l-1.6-1.6c0,0,4.2-1.2,3.9-6.1c-0.2-3.5-0.2-7.5,1.1-11
			c0.5-1.3-1.3-19.5,0-21.4c1.5-2.2,14.4,10.2,14.4,10.2s2.7-2.9,13.2-2.9c10.5,0,13.2,2.9,13.2,2.9s13-12.5,14.4-10.2
			c1.3,2-0.5,20.1,0,21.4c1.3,3.5,1.3,7.5,1.1,11c-0.3,4.9,3.9,6.1,3.9,6.1l-1.6,1.6l2,1.5l-4.9,0.9l1.9,2.3h-2.3l2.3,2.8l-3.3,0.2
			l0.9,1.2c-6.1-0.8-8.9,3.9-8.9,3.9s-2.3,9.5,3.4,22.4c16.8-8.2,28.4-25.5,28.4-45.5C-117.1,270.4-139.7,247.8-167.6,247.8z"/>
		<path class="st9" d="M-186.4,321.4c0,0-0.1-0.1-0.2-0.3l-14.8,14.8c3.5,3.2,7.4,5.8,11.7,7.9
			C-184.2,330.9-186.4,321.4-186.4,321.4z"/>
		<path class="st9" d="M-117.1,298.3c0-13-4.9-24.9-13-33.9l-9.4,9.4c-0.1,6.1-0.8,15.2-0.5,16.1c1.3,3.5,1.3,7.5,1.1,11
			c-0.3,4.9,3.9,6.1,3.9,6.1l-1.6,1.6l2,1.5l-4.9,0.9l1.9,2.3h-2.3l2.3,2.8l-3.3,0.2l0.9,1.2c-6.1-0.8-8.9,3.9-8.9,3.9
			s-2.3,9.5,3.4,22.4C-128.7,335.6-117.1,318.3-117.1,298.3z"/>
	</g>
	<g>
		<path class="st8" d="M335.3,19.1c-11.1,0-20.9,5.6-26.8,14.1c0,0-2,3-5.1,3c-3.1,0-5.1-3-5.1-3c-5.9-8.5-15.7-14.1-26.8-14.1
			c-18,0-32.6,14.6-32.6,32.6c0,4.2,0.8,8.3,2.3,12c6.3,19.6,27.8,41.6,44.5,53.7c2.9-8.2,5.8-19.5,1.6-22.5
			c-6.9-4.9-4.7-15.2-3.3-19.4c1.4-4.2,0.1-7,0.1-7c-4.3,13.4-9.9,11.9-9.9,11.9s0.1-10.1-2-13.9c-2.1-3.8-5-7.5-3.1-11.9
			c1.9-4.5,10.3-2.2,13-4.1c2.7-1.8,5.6-0.5,5.6-0.5c3.3-2.8,15.7-1.6,15.7-1.6s12.4-1.3,15.7,1.6c0,0,2.9-1.4,5.6,0.5
			c2.7,1.8,11-0.4,13,4.1c1.9,4.5-1,8.1-3.1,11.9c-2.1,3.8-2,13.9-2,13.9s-5.6,1.5-9.9-11.9c0,0-1.3,2.8,0.1,7
			c1.4,4.2,3.6,14.4-3.3,19.4c-4.2,3-1.3,14.3,1.6,22.5c16.7-12.1,38.2-34.1,44.5-53.7c1.5-3.7,2.3-7.8,2.3-12
			C367.9,33.7,353.3,19.1,335.3,19.1z"/>
		<path class="st9" d="M287.3,94.8c-1.9-1.3-3.1-3.1-3.8-5l-14,14c5.4,5.2,11,9.9,16.1,13.6C288.6,109.1,291.5,97.9,287.3,94.8z"/>
		<path class="st9" d="M365.5,63.7c1.5-3.7,2.3-7.8,2.3-12c0-12.5-7.1-23.4-17.4-28.8l-27,27c0.4,0.1,0.8,0.4,1.3,0.6
			c2.7,1.8,11-0.4,13,4.1c1.9,4.5-1,8.1-3.1,11.9c-2.1,3.8-2,13.9-2,13.9s-5.6,1.5-9.9-11.9c0,0-1.3,2.8,0.1,7
			c1.4,4.2,3.6,14.4-3.3,19.4c-4.2,3-1.3,14.3,1.6,22.5C337.7,105.3,359.2,83.3,365.5,63.7z"/>
	</g>
	<g>
		<path class="st3" d="M333.8,489.7c-10.6,0-20,5.3-25.6,13.4c0,0-1.9,2.8-4.9,2.8c-3,0-4.9-2.8-4.9-2.8c-5.6-8.1-15-13.4-25.6-13.4
			c-17.1,0-31,13.9-31,31.1c0,4,0.8,7.9,2.2,11.4c6,18.6,26.3,39.5,42.2,51c0.9-9.6,0-18.6,0-18.6s-2.6-4.3-8.2-3.6l0.8-1.1
			l-3.1-0.2l2.1-2.6h-2.1l1.8-2.1l-4.5-0.8l1.8-1.4l-1.5-1.5c0,0,3.9-1.1,3.6-5.6c-0.2-3.3-0.2-7,1-10.2c0.5-1.2-1.2-18.1,0-19.9
			c1.4-2.1,13.4,9.5,13.4,9.5s2.5-2.7,12.3-2.7c9.8,0,12.3,2.7,12.3,2.7s12-11.6,13.4-9.5c1.2,1.8-0.5,18.7,0,19.9
			c1.2,3.3,1.2,6.9,1,10.2c-0.3,4.5,3.6,5.6,3.6,5.6l-1.5,1.5l1.8,1.4l-4.5,0.8l1.8,2.1h-2.1l2.1,2.6l-3.1,0.2l0.8,1.1
			c-5.6-0.7-8.2,3.6-8.2,3.6s-0.9,8.7-0.1,18.1c15.8-11.6,35.6-32.2,41.5-50.5c1.4-3.5,2.2-7.4,2.2-11.4
			C364.9,503.5,351,489.7,333.8,489.7z"/>
		<path class="st4" d="M286.3,564.6c0,0-0.6-1.1-2-2.1L273.8,573c4.2,3.9,8.5,7.3,12.4,10.2C287.2,573.6,286.3,564.6,286.3,564.6z"
			/>
		<path class="st4" d="M362.7,532.2c1.4-3.5,2.2-7.4,2.2-11.4c0-10.6-5.3-19.9-13.3-25.5l-21.8,21.8c0.4,4.6-0.8,17.3-0.4,18.4
			c1.2,3.3,1.2,6.9,1,10.2c-0.3,4.5,3.6,5.6,3.6,5.6l-1.5,1.5l1.8,1.4l-4.5,0.8l1.8,2.1h-2.1l2.1,2.6l-3.1,0.2l0.8,1.1
			c-5.6-0.7-8.2,3.6-8.2,3.6s-0.9,8.7-0.1,18.1C336.9,571,356.8,550.5,362.7,532.2z"/>
	</g>
	<g>
		<path class="st5" d="M65.8,14.4c-28.4,0-51.5,23.1-51.5,51.5c0,28.4,23.1,51.5,51.5,51.5c28.4,0,51.5-23.1,51.5-51.5
			C117.3,37.5,94.2,14.4,65.8,14.4z M67.3,42.7c1.1-5.6,5.9-9.3,10.7-8.3c4.8,1,7.7,6.3,6.6,11.8c-1.1,5.5-5.9,9.2-10.7,8.3
			C69.1,53.6,66.2,48.3,67.3,42.7z M53.5,34.4c4.8-1,9.5,2.7,10.7,8.3c1.1,5.5-1.8,10.8-6.5,11.8c-4.8,1-9.5-2.7-10.7-8.3
			C45.8,40.7,48.7,35.4,53.5,34.4z M31.6,62.8c-2.3-5.2-0.5-11,3.9-12.9c4.4-2,9.9,0.7,12.2,5.8c2.3,5.2,0.5,11-3.9,12.9
			C39.3,70.6,33.9,68,31.6,62.8z M81,97.6c-5.5,0-13-3.6-15.2-3.6c-2.2,0-9.7,3.6-15.2,3.6c-6.5,0-11.9-5.3-11.9-11.9
			c0-5.4,3.7-9.9,8.6-11.3c2.3-1.4,5.4-4,7-7.9c2.6-6.7,7.7-7.9,11.5-7.9c3.8,0,8.9,1.2,11.5,7.9c1.6,4,4.7,6.5,7,7.9
			c5,1.4,8.6,5.9,8.6,11.3C92.8,92.3,87.5,97.6,81,97.6z M99.9,62.8c-2.3,5.2-7.7,7.8-12.2,5.8c-4.4-2-6.2-7.7-3.9-12.9
			c2.3-5.2,7.7-7.8,12.2-5.8C100.4,51.8,102.2,57.6,99.9,62.8z"/>
		<path class="st7" d="M117.3,65.9c0-14.1-5.7-26.9-14.9-36.2L84.1,48c-1.2,3.1-3.5,5.5-6.3,6.3L72,60c2,1.1,3.9,3.1,5.2,6.4
			c1.6,4,4.7,6.5,7,7.9c5,1.4,8.6,5.9,8.6,11.3c0,6.5-5.3,11.9-11.9,11.9c-5.5,0-13-3.6-15.2-3.6c-2.2,0-9.7,3.6-15.2,3.6
			c-4.4,0-8.2-2.4-10.2-5.9l-10.8,10.8c9.3,9.2,22.1,14.9,36.2,14.9C94.2,117.4,117.3,94.4,117.3,65.9z M87.7,68.6
			c-4.4-2-6.2-7.7-3.9-12.9c2.3-5.2,7.7-7.8,12.2-5.8c4.4,2,6.2,7.7,3.9,12.9C97.6,68,92.2,70.6,87.7,68.6z"/>
	</g>
	<g>
		<path class="st8" d="M67.7,482.1c-27.9,0-50.6,22.6-50.6,50.6c0,21.6,13.6,40.1,32.7,47.3c2.7-14.1,4.8-24,0.8-26.9
			c-7.3-5.2-4.9-16.1-3.5-20.6c1.4-4.4,0.1-7.4,0.1-7.4c-4.5,14.2-10.5,12.6-10.5,12.6s0.1-10.7-2.2-14.7c-2.3-4-5.3-7.9-3.3-12.6
			c2.1-4.7,10.9-2.4,13.8-4.3c2.9-2,6-0.5,6-0.5c3.5-3,16.7-1.6,16.7-1.6s13.2-1.3,16.7,1.6c0,0,3.1-1.4,6,0.5
			c2.9,2,11.7-0.4,13.8,4.3c2.1,4.7-1,8.6-3.3,12.6c-2.3,4-2.2,14.7-2.2,14.7s-6,1.5-10.5-12.6c0,0-1.3,3,0.1,7.4
			c1.4,4.4,3.8,15.3-3.5,20.6c-4,2.9-1.9,12.8,0.8,26.9c19.1-7.2,32.7-25.7,32.7-47.3C118.2,504.8,95.6,482.1,67.7,482.1z"/>
		<path class="st9" d="M50.6,553.1c-1.2-0.9-2.1-1.9-2.8-3l-17,17c5.3,5.6,11.8,10,19.1,12.8C52.5,565.9,54.6,556,50.6,553.1z"/>
		<path class="st9" d="M118.2,532.7c0-14.6-6.2-27.7-16.1-36.9l-10.9,10.9c3.6,1.1,10.9-0.4,12.7,3.8c2.1,4.7-1,8.6-3.3,12.6
			c-2.3,4-2.2,14.7-2.2,14.7s-6,1.5-10.5-12.6c0,0-1.3,3,0.1,7.4c1.4,4.4,3.8,15.3-3.5,20.6c-4,2.9-1.9,12.8,0.8,26.9
			C104.6,572.8,118.2,554.3,118.2,532.7z"/>
	</g>
</g>
<g id="www.freepik.com">
	<g>
		<g>
			<path class="st10" d="M240.4,727.4v-0.3c-0.3,0.4-0.7,0.7-1,1c-0.3,0.3-0.7,0.4-1.1,0.6c-0.4,0.1-0.8,0.2-1.3,0.2
				c-0.6,0-1.2-0.1-1.7-0.4c-0.5-0.3-1-0.6-1.4-1.1c-0.4-0.5-0.7-1.1-0.9-1.7c-0.2-0.7-0.3-1.4-0.3-2.1c0-1.6,0.4-2.9,1.2-3.8
				c0.8-0.9,1.8-1.4,3.1-1.4c0.7,0,1.4,0.1,1.9,0.4c0.5,0.3,1,0.7,1.5,1.2v-3.8c0-0.5,0.1-0.9,0.3-1.2c0.2-0.3,0.5-0.4,0.9-0.4
				c0.4,0,0.7,0.1,0.9,0.4c0.2,0.3,0.3,0.6,0.3,1.1v11.4c0,0.5-0.1,0.9-0.3,1.1c-0.2,0.2-0.5,0.4-0.9,0.4c-0.4,0-0.6-0.1-0.9-0.4
				C240.5,728.3,240.4,727.9,240.4,727.4z M235.3,723.6c0,0.7,0.1,1.3,0.3,1.8c0.2,0.5,0.5,0.9,0.9,1.1c0.4,0.3,0.8,0.4,1.2,0.4
				c0.5,0,0.9-0.1,1.2-0.4c0.4-0.2,0.7-0.6,0.9-1.1c0.2-0.5,0.3-1.1,0.3-1.8c0-0.7-0.1-1.3-0.3-1.8c-0.2-0.5-0.5-0.9-0.9-1.1
				c-0.4-0.3-0.8-0.4-1.3-0.4c-0.5,0-0.9,0.1-1.3,0.4c-0.4,0.3-0.7,0.7-0.9,1.2C235.4,722.4,235.3,723,235.3,723.6z"/>
			<path class="st10" d="M251.8,724.3h-5.1c0,0.6,0.1,1.1,0.4,1.6c0.2,0.4,0.5,0.8,0.9,1c0.4,0.2,0.8,0.3,1.3,0.3
				c0.3,0,0.6,0,0.9-0.1c0.3-0.1,0.5-0.2,0.7-0.3c0.2-0.2,0.5-0.3,0.7-0.5c0.2-0.2,0.5-0.4,0.8-0.7c0.1-0.1,0.3-0.2,0.6-0.2
				c0.3,0,0.5,0.1,0.6,0.2c0.2,0.1,0.2,0.3,0.2,0.6c0,0.2-0.1,0.5-0.3,0.8c-0.2,0.3-0.5,0.6-0.8,0.9c-0.4,0.3-0.8,0.5-1.4,0.7
				c-0.6,0.2-1.2,0.3-1.9,0.3c-1.7,0-3-0.5-3.9-1.4c-0.9-0.9-1.4-2.2-1.4-3.9c0-0.8,0.1-1.5,0.3-2.1c0.2-0.7,0.6-1.2,1-1.7
				c0.4-0.5,1-0.8,1.6-1.1c0.6-0.3,1.3-0.4,2.1-0.4c1,0,1.9,0.2,2.6,0.6c0.7,0.4,1.3,1,1.6,1.7c0.4,0.7,0.5,1.4,0.5,2.1
				c0,0.7-0.2,1.1-0.6,1.3C253,724.2,252.5,724.3,251.8,724.3z M246.7,722.8h4.7c-0.1-0.9-0.3-1.6-0.7-2c-0.4-0.4-1-0.7-1.6-0.7
				c-0.6,0-1.2,0.2-1.6,0.7C247.1,721.3,246.8,721.9,246.7,722.8z"/>
			<path class="st10" d="M263.6,725.5c0,0.7-0.2,1.3-0.5,1.8c-0.3,0.5-0.9,0.9-1.5,1.2c-0.7,0.3-1.5,0.4-2.5,0.4
				c-0.9,0-1.7-0.1-2.4-0.4c-0.7-0.3-1.2-0.6-1.5-1.1c-0.3-0.4-0.5-0.9-0.5-1.3c0-0.3,0.1-0.5,0.3-0.7c0.2-0.2,0.5-0.3,0.8-0.3
				c0.3,0,0.5,0.1,0.6,0.2c0.1,0.1,0.3,0.3,0.4,0.6c0.3,0.5,0.6,0.8,1,1c0.4,0.2,0.9,0.3,1.5,0.3c0.5,0,0.9-0.1,1.3-0.3
				c0.3-0.2,0.5-0.5,0.5-0.8c0-0.5-0.2-0.8-0.5-1c-0.3-0.2-0.9-0.4-1.7-0.6c-0.9-0.2-1.6-0.5-2.2-0.7c-0.6-0.2-1-0.6-1.3-1
				c-0.3-0.4-0.5-0.9-0.5-1.5c0-0.5,0.2-1,0.5-1.5c0.3-0.5,0.8-0.8,1.4-1.1c0.6-0.3,1.3-0.4,2.2-0.4c0.7,0,1.3,0.1,1.8,0.2
				c0.5,0.1,1,0.3,1.3,0.6c0.4,0.2,0.6,0.5,0.8,0.8c0.2,0.3,0.3,0.6,0.3,0.8c0,0.3-0.1,0.5-0.3,0.7c-0.2,0.2-0.5,0.3-0.9,0.3
				c-0.3,0-0.5-0.1-0.7-0.2c-0.2-0.2-0.4-0.4-0.6-0.7c-0.2-0.3-0.4-0.5-0.7-0.6c-0.3-0.2-0.6-0.2-1.1-0.2c-0.5,0-0.9,0.1-1.2,0.3
				c-0.3,0.2-0.5,0.4-0.5,0.7c0,0.3,0.1,0.5,0.3,0.7c0.2,0.2,0.5,0.3,0.9,0.4c0.4,0.1,0.9,0.3,1.6,0.4c0.8,0.2,1.5,0.4,2,0.7
				c0.5,0.3,0.9,0.6,1.2,1C263.5,724.6,263.6,725.1,263.6,725.5z"/>
			<path class="st10" d="M266.3,717.2c-0.4,0-0.7-0.1-0.9-0.3c-0.3-0.2-0.4-0.5-0.4-0.9c0-0.4,0.1-0.7,0.4-0.9
				c0.3-0.2,0.6-0.4,0.9-0.4c0.3,0,0.6,0.1,0.9,0.3c0.3,0.2,0.4,0.5,0.4,0.9c0,0.4-0.1,0.7-0.4,0.9
				C266.9,717.1,266.6,717.2,266.3,717.2z M267.6,719.8v7.5c0,0.5-0.1,0.9-0.4,1.2c-0.2,0.3-0.6,0.4-0.9,0.4c-0.4,0-0.7-0.1-0.9-0.4
				c-0.2-0.3-0.4-0.7-0.4-1.2v-7.4c0-0.5,0.1-0.9,0.4-1.2c0.2-0.3,0.5-0.4,0.9-0.4c0.4,0,0.7,0.1,0.9,0.4
				C267.4,719,267.6,719.4,267.6,719.8z"/>
			<path class="st10" d="M278.9,720.3v7.5c0,0.9-0.1,1.6-0.3,2.2c-0.2,0.6-0.5,1.1-0.9,1.5c-0.4,0.4-0.9,0.7-1.6,0.9
				c-0.7,0.2-1.5,0.3-2.4,0.3c-0.9,0-1.7-0.1-2.4-0.4c-0.7-0.3-1.2-0.6-1.6-1c-0.4-0.4-0.6-0.8-0.6-1.2c0-0.3,0.1-0.6,0.3-0.8
				c0.2-0.2,0.5-0.3,0.8-0.3c0.4,0,0.7,0.2,1,0.5c0.1,0.2,0.3,0.3,0.4,0.5c0.1,0.2,0.3,0.3,0.5,0.4c0.2,0.1,0.4,0.2,0.7,0.3
				c0.3,0.1,0.5,0.1,0.9,0.1c0.7,0,1.2-0.1,1.6-0.3c0.4-0.2,0.6-0.4,0.8-0.8c0.1-0.3,0.2-0.7,0.3-1.1c0-0.4,0-1,0.1-1.8
				c-0.4,0.6-0.9,1-1.4,1.3c-0.5,0.3-1.1,0.4-1.9,0.4c-0.9,0-1.6-0.2-2.3-0.7c-0.6-0.4-1.1-1.1-1.5-1.9c-0.3-0.8-0.5-1.7-0.5-2.8
				c0-0.8,0.1-1.5,0.3-2.1c0.2-0.6,0.5-1.2,0.9-1.6c0.4-0.4,0.8-0.8,1.4-1c0.5-0.2,1.1-0.3,1.7-0.3c0.7,0,1.4,0.1,1.9,0.4
				c0.5,0.3,1,0.7,1.5,1.3v-0.4c0-0.4,0.1-0.8,0.3-1c0.2-0.2,0.5-0.4,0.9-0.4c0.5,0,0.8,0.2,1,0.5
				C278.8,719.2,278.9,719.7,278.9,720.3z M271.4,723.6c0,1.1,0.2,1.8,0.7,2.4c0.5,0.5,1.1,0.8,1.8,0.8c0.4,0,0.8-0.1,1.2-0.3
				c0.4-0.2,0.7-0.6,0.9-1c0.2-0.5,0.4-1,0.4-1.7c0-1.1-0.2-1.9-0.7-2.5c-0.5-0.6-1.1-0.9-1.8-0.9c-0.7,0-1.3,0.3-1.8,0.8
				C271.6,721.7,271.4,722.5,271.4,723.6z"/>
			<path class="st10" d="M283,719.8v0.3c0.5-0.6,1-1,1.5-1.3c0.5-0.3,1.2-0.4,1.9-0.4c0.7,0,1.3,0.2,1.8,0.4
				c0.5,0.3,0.9,0.7,1.2,1.3c0.2,0.3,0.3,0.7,0.3,1c0.1,0.4,0.1,0.8,0.1,1.4v4.8c0,0.5-0.1,0.9-0.4,1.2c-0.2,0.3-0.5,0.4-0.9,0.4
				c-0.4,0-0.7-0.1-0.9-0.4c-0.2-0.3-0.4-0.7-0.4-1.2V723c0-0.9-0.1-1.5-0.4-2c-0.2-0.5-0.7-0.7-1.4-0.7c-0.5,0-0.9,0.1-1.3,0.4
				s-0.7,0.7-0.8,1.1c-0.1,0.4-0.2,1.1-0.2,2.2v3.2c0,0.5-0.1,0.9-0.4,1.2c-0.2,0.3-0.6,0.4-0.9,0.4c-0.4,0-0.7-0.1-0.9-0.4
				c-0.2-0.3-0.4-0.7-0.4-1.2v-7.5c0-0.5,0.1-0.9,0.3-1.1c0.2-0.2,0.5-0.4,0.9-0.4c0.2,0,0.4,0.1,0.6,0.2c0.2,0.1,0.3,0.3,0.4,0.5
				C283,719.2,283,719.5,283,719.8z"/>
			<path class="st10" d="M298.8,724.3h-5.1c0,0.6,0.1,1.1,0.4,1.6c0.2,0.4,0.5,0.8,0.9,1c0.4,0.2,0.8,0.3,1.3,0.3
				c0.3,0,0.6,0,0.9-0.1c0.3-0.1,0.5-0.2,0.7-0.3c0.2-0.2,0.5-0.3,0.7-0.5c0.2-0.2,0.5-0.4,0.8-0.7c0.1-0.1,0.3-0.2,0.6-0.2
				c0.3,0,0.5,0.1,0.6,0.2c0.2,0.1,0.2,0.3,0.2,0.6c0,0.2-0.1,0.5-0.3,0.8c-0.2,0.3-0.5,0.6-0.8,0.9c-0.4,0.3-0.8,0.5-1.4,0.7
				c-0.6,0.2-1.2,0.3-1.9,0.3c-1.7,0-3-0.5-3.9-1.4c-0.9-0.9-1.4-2.2-1.4-3.9c0-0.8,0.1-1.5,0.3-2.1c0.2-0.7,0.6-1.2,1-1.7
				c0.4-0.5,1-0.8,1.6-1.1s1.3-0.4,2.1-0.4c1,0,1.9,0.2,2.6,0.6c0.7,0.4,1.3,1,1.6,1.7c0.4,0.7,0.5,1.4,0.5,2.1
				c0,0.7-0.2,1.1-0.6,1.3C300,724.2,299.5,724.3,298.8,724.3z M293.7,722.8h4.7c-0.1-0.9-0.3-1.6-0.7-2c-0.4-0.4-1-0.7-1.6-0.7
				c-0.6,0-1.2,0.2-1.6,0.7C294.1,721.3,293.8,721.9,293.7,722.8z"/>
			<path class="st10" d="M309.4,727.4v-0.3c-0.3,0.4-0.7,0.7-1,1c-0.3,0.3-0.7,0.4-1.1,0.6c-0.4,0.1-0.8,0.2-1.3,0.2
				c-0.6,0-1.2-0.1-1.7-0.4c-0.5-0.3-1-0.6-1.4-1.1c-0.4-0.5-0.7-1.1-0.9-1.7c-0.2-0.7-0.3-1.4-0.3-2.1c0-1.6,0.4-2.9,1.2-3.8
				c0.8-0.9,1.8-1.4,3.1-1.4c0.7,0,1.4,0.1,1.9,0.4c0.5,0.3,1,0.7,1.5,1.2v-3.8c0-0.5,0.1-0.9,0.3-1.2c0.2-0.3,0.5-0.4,0.9-0.4
				c0.4,0,0.7,0.1,0.9,0.4c0.2,0.3,0.3,0.6,0.3,1.1v11.4c0,0.5-0.1,0.9-0.3,1.1c-0.2,0.2-0.5,0.4-0.9,0.4c-0.4,0-0.6-0.1-0.9-0.4
				C309.5,728.3,309.4,727.9,309.4,727.4z M304.3,723.6c0,0.7,0.1,1.3,0.3,1.8c0.2,0.5,0.5,0.9,0.9,1.1c0.4,0.3,0.8,0.4,1.2,0.4
				c0.5,0,0.9-0.1,1.2-0.4c0.4-0.2,0.7-0.6,0.9-1.1c0.2-0.5,0.3-1.1,0.3-1.8c0-0.7-0.1-1.3-0.3-1.8c-0.2-0.5-0.5-0.9-0.9-1.1
				c-0.4-0.3-0.8-0.4-1.3-0.4c-0.5,0-0.9,0.1-1.3,0.4c-0.4,0.3-0.7,0.7-0.9,1.2C304.4,722.4,304.3,723,304.3,723.6z"/>
			<path class="st10" d="M320,716v4c0.5-0.5,1-0.9,1.5-1.2c0.5-0.3,1.1-0.4,1.9-0.4c0.9,0,1.6,0.2,2.3,0.6c0.6,0.4,1.2,1,1.5,1.8
				c0.4,0.8,0.5,1.7,0.5,2.8c0,0.8-0.1,1.5-0.3,2.2c-0.2,0.7-0.5,1.2-0.9,1.7c-0.4,0.5-0.8,0.9-1.4,1.1c-0.5,0.3-1.1,0.4-1.8,0.4
				c-0.4,0-0.8,0-1.1-0.1c-0.4-0.1-0.7-0.2-0.9-0.4c-0.2-0.2-0.5-0.3-0.6-0.5c-0.2-0.2-0.4-0.4-0.7-0.7v0.3c0,0.5-0.1,0.9-0.4,1.1
				c-0.2,0.3-0.5,0.4-0.9,0.4c-0.4,0-0.7-0.1-0.9-0.4c-0.2-0.3-0.3-0.6-0.3-1.1v-11.3c0-0.5,0.1-0.9,0.3-1.2
				c0.2-0.3,0.5-0.4,0.9-0.4c0.4,0,0.7,0.1,0.9,0.4C319.9,715.2,320,715.5,320,716z M320.1,723.7c0,1,0.2,1.8,0.7,2.4
				c0.5,0.6,1.1,0.8,1.9,0.8c0.7,0,1.2-0.3,1.7-0.9c0.5-0.6,0.7-1.4,0.7-2.4c0-0.7-0.1-1.3-0.3-1.8c-0.2-0.5-0.5-0.9-0.8-1.1
				c-0.4-0.3-0.8-0.4-1.3-0.4c-0.5,0-0.9,0.1-1.3,0.4c-0.4,0.3-0.7,0.7-0.9,1.2C320.2,722.4,320.1,723,320.1,723.7z"/>
			<path class="st10" d="M331,729.2l0.2-0.6l-3.2-8c-0.2-0.5-0.3-0.8-0.3-1c0-0.2,0.1-0.4,0.2-0.6c0.1-0.2,0.3-0.3,0.5-0.5
				c0.2-0.1,0.4-0.2,0.6-0.2c0.4,0,0.7,0.1,0.8,0.4c0.2,0.2,0.4,0.6,0.5,1l2.2,6.4l2.1-5.9c0.2-0.5,0.3-0.9,0.4-1.1
				c0.1-0.3,0.3-0.5,0.4-0.5c0.1-0.1,0.4-0.1,0.6-0.1c0.2,0,0.4,0.1,0.6,0.2c0.2,0.1,0.3,0.2,0.4,0.4c0.1,0.2,0.1,0.4,0.1,0.6
				c0,0.1-0.1,0.3-0.1,0.5c-0.1,0.2-0.1,0.4-0.2,0.7l-3.4,8.9c-0.3,0.8-0.6,1.4-0.9,1.8c-0.3,0.4-0.6,0.8-1.1,1
				c-0.5,0.2-1.1,0.4-1.9,0.4c-0.8,0-1.3-0.1-1.7-0.2c-0.4-0.2-0.6-0.5-0.6-0.9c0-0.3,0.1-0.5,0.3-0.7c0.2-0.2,0.4-0.2,0.8-0.2
				c0.1,0,0.3,0,0.4,0.1c0.2,0,0.3,0.1,0.4,0.1c0.3,0,0.5,0,0.7-0.1c0.2-0.1,0.3-0.2,0.5-0.5C330.7,730,330.9,729.7,331,729.2z"/>
		</g>
		<g>
			<path class="st10" d="M368.6,718.6h0.6v-0.8c0-0.8,0.1-1.5,0.3-1.9c0.2-0.5,0.6-0.8,1-1c0.5-0.2,1.2-0.3,2-0.3
				c1.5,0,2.3,0.4,2.3,1.1c0,0.2-0.1,0.4-0.2,0.6c-0.2,0.2-0.3,0.3-0.6,0.3c-0.1,0-0.3,0-0.5-0.1c-0.2,0-0.5-0.1-0.6-0.1
				c-0.5,0-0.8,0.1-0.9,0.4c-0.1,0.3-0.2,0.7-0.2,1.2v0.6h0.6c1,0,1.5,0.3,1.5,0.9c0,0.4-0.1,0.7-0.4,0.8c-0.3,0.1-0.6,0.2-1.1,0.2
				h-0.6v6.9c0,0.5-0.1,0.9-0.4,1.2c-0.2,0.3-0.6,0.4-0.9,0.4c-0.4,0-0.7-0.1-0.9-0.4c-0.2-0.3-0.4-0.7-0.4-1.2v-6.9h-0.7
				c-0.4,0-0.7-0.1-0.9-0.3c-0.2-0.2-0.3-0.4-0.3-0.7C367.3,718.9,367.7,718.6,368.6,718.6"/>
			<path class="st10" d="M377.1,725.2v2.2c0,0.5-0.1,0.9-0.4,1.2c-0.2,0.3-0.6,0.4-0.9,0.4c-0.4,0-0.7-0.1-0.9-0.4
				c-0.2-0.3-0.4-0.7-0.4-1.2v-7.2c0-1.2,0.4-1.7,1.3-1.7c0.4,0,0.7,0.1,0.9,0.4c0.2,0.3,0.3,0.7,0.3,1.2c0.3-0.5,0.6-0.9,0.9-1.2
				c0.3-0.3,0.8-0.4,1.3-0.4c0.5,0,1.1,0.1,1.6,0.4c0.5,0.3,0.8,0.6,0.8,1.1c0,0.3-0.1,0.6-0.3,0.8c-0.2,0.2-0.5,0.3-0.7,0.3
				c-0.1,0-0.3-0.1-0.7-0.2c-0.4-0.1-0.7-0.2-1-0.2c-0.4,0-0.7,0.1-0.9,0.3c-0.2,0.2-0.4,0.5-0.6,0.9c-0.1,0.4-0.2,0.9-0.3,1.4
				C377.1,723.7,377.1,724.4,377.1,725.2"/>
			<path class="st10" d="M389,724.3h-5.1c0,0.6,0.1,1.1,0.4,1.6c0.2,0.4,0.5,0.8,0.9,1c0.4,0.2,0.8,0.3,1.3,0.3c0.3,0,0.6,0,0.8-0.1
				c0.3-0.1,0.5-0.2,0.7-0.3c0.2-0.2,0.5-0.3,0.7-0.5c0.2-0.2,0.5-0.4,0.8-0.7c0.1-0.1,0.3-0.2,0.6-0.2c0.3,0,0.5,0.1,0.6,0.2
				c0.2,0.1,0.2,0.3,0.2,0.6c0,0.2-0.1,0.5-0.3,0.8c-0.2,0.3-0.5,0.6-0.8,0.9c-0.4,0.3-0.8,0.5-1.4,0.7c-0.6,0.2-1.2,0.3-1.9,0.3
				c-1.7,0-3-0.5-3.9-1.4c-0.9-1-1.4-2.2-1.4-3.9c0-0.8,0.1-1.5,0.3-2.1c0.2-0.7,0.6-1.2,1-1.7c0.4-0.5,1-0.8,1.6-1.1
				c0.6-0.3,1.3-0.4,2.1-0.4c1,0,1.9,0.2,2.6,0.6c0.7,0.4,1.3,1,1.6,1.7c0.4,0.7,0.5,1.4,0.5,2.1c0,0.6-0.2,1.1-0.6,1.3
				C390.2,724.2,389.7,724.3,389,724.3 M383.9,722.8h4.7c-0.1-0.9-0.3-1.5-0.7-2c-0.4-0.4-1-0.7-1.6-0.7c-0.6,0-1.2,0.2-1.6,0.7
				C384.3,721.3,384,721.9,383.9,722.8"/>
			<path class="st10" d="M399.8,724.3h-5.1c0,0.6,0.1,1.1,0.4,1.6c0.2,0.4,0.5,0.8,0.9,1c0.4,0.2,0.8,0.3,1.3,0.3
				c0.3,0,0.6,0,0.8-0.1c0.3-0.1,0.5-0.2,0.8-0.3c0.2-0.2,0.5-0.3,0.7-0.5c0.2-0.2,0.5-0.4,0.8-0.7c0.1-0.1,0.3-0.2,0.6-0.2
				c0.3,0,0.5,0.1,0.7,0.2c0.2,0.1,0.2,0.3,0.2,0.6c0,0.2-0.1,0.5-0.3,0.8c-0.2,0.3-0.5,0.6-0.8,0.9c-0.4,0.3-0.8,0.5-1.4,0.7
				c-0.6,0.2-1.2,0.3-1.9,0.3c-1.7,0-3-0.5-3.9-1.4c-0.9-1-1.4-2.2-1.4-3.9c0-0.8,0.1-1.5,0.3-2.1c0.2-0.7,0.6-1.2,1-1.7
				c0.4-0.5,1-0.8,1.6-1.1c0.6-0.3,1.4-0.4,2.1-0.4c1,0,1.9,0.2,2.6,0.6c0.7,0.4,1.3,1,1.6,1.7c0.4,0.7,0.5,1.4,0.5,2.1
				c0,0.6-0.2,1.1-0.6,1.3C401,724.2,400.5,724.3,399.8,724.3 M394.7,722.8h4.7c-0.1-0.9-0.3-1.5-0.7-2c-0.4-0.4-1-0.7-1.6-0.7
				c-0.6,0-1.2,0.2-1.6,0.7C395.1,721.3,394.8,721.9,394.7,722.8"/>
			<path class="st10" d="M405.5,719.8v0.3c0.5-0.6,1-1,1.5-1.3c0.5-0.3,1.1-0.4,1.8-0.4c0.8,0,1.5,0.2,2.2,0.6
				c0.7,0.4,1.2,1,1.6,1.8c0.4,0.8,0.6,1.7,0.6,2.8c0,0.8-0.1,1.5-0.3,2.2c-0.2,0.7-0.5,1.2-0.9,1.7c-0.4,0.4-0.9,0.8-1.4,1
				c-0.5,0.2-1.1,0.4-1.7,0.4c-0.7,0-1.4-0.1-1.9-0.4c-0.5-0.3-1-0.7-1.4-1.3v3.9c0,1.1-0.4,1.7-1.2,1.7c-0.5,0-0.8-0.1-1-0.4
				c-0.2-0.3-0.2-0.7-0.2-1.3v-11.2c0-0.5,0.1-0.9,0.3-1.1c0.2-0.2,0.5-0.4,0.9-0.4c0.4,0,0.7,0.1,0.9,0.4
				C405.4,719,405.5,719.4,405.5,719.8 M410.6,723.6c0-0.7-0.1-1.3-0.3-1.8c-0.2-0.5-0.5-0.9-0.9-1.1c-0.4-0.3-0.8-0.4-1.2-0.4
				c-0.7,0-1.3,0.3-1.8,0.8c-0.5,0.6-0.7,1.4-0.7,2.5c0,1,0.2,1.8,0.7,2.4c0.5,0.6,1.1,0.9,1.8,0.9c0.4,0,0.8-0.1,1.2-0.4
				c0.4-0.3,0.7-0.6,0.9-1.1C410.4,724.9,410.6,724.3,410.6,723.6"/>
			<path class="st10" d="M415.8,717.2c-0.4,0-0.7-0.1-0.9-0.3c-0.3-0.2-0.4-0.5-0.4-0.9c0-0.4,0.1-0.7,0.4-0.9
				c0.3-0.2,0.6-0.4,0.9-0.4c0.3,0,0.6,0.1,0.9,0.3c0.3,0.2,0.4,0.5,0.4,0.9c0,0.4-0.1,0.7-0.4,0.9
				C416.4,717,416.1,717.2,415.8,717.2 M417.1,719.8v7.5c0,0.5-0.1,0.9-0.4,1.2c-0.3,0.3-0.6,0.4-0.9,0.4c-0.4,0-0.7-0.1-0.9-0.4
				c-0.2-0.3-0.4-0.7-0.4-1.2v-7.4c0-0.5,0.1-0.9,0.4-1.2c0.2-0.3,0.5-0.4,0.9-0.4c0.4,0,0.7,0.1,0.9,0.4
				C416.9,719,417.1,719.4,417.1,719.8"/>
			<path class="st10" d="M425.4,727.7l-2.3-3.8l-1.4,1.3v2.1c0,0.5-0.1,0.9-0.4,1.1c-0.3,0.3-0.6,0.4-0.9,0.4
				c-0.4,0-0.7-0.1-0.9-0.4c-0.2-0.3-0.3-0.7-0.3-1.2v-11.1c0-0.6,0.1-1,0.3-1.3c0.2-0.3,0.5-0.5,1-0.5c0.4,0,0.7,0.1,0.9,0.4
				c0.2,0.3,0.4,0.7,0.4,1.2v6.3l2.9-3.1c0.4-0.4,0.6-0.6,0.8-0.8c0.2-0.1,0.4-0.2,0.7-0.2c0.3,0,0.6,0.1,0.8,0.3
				c0.2,0.2,0.3,0.5,0.3,0.8c0,0.4-0.4,0.9-1.1,1.5l-1.4,1.3l2.7,4.2c0.2,0.3,0.3,0.5,0.4,0.7c0.1,0.2,0.1,0.3,0.1,0.5
				c0,0.4-0.1,0.7-0.3,1c-0.2,0.2-0.5,0.4-0.9,0.4c-0.3,0-0.6-0.1-0.7-0.3C425.9,728.5,425.7,728.2,425.4,727.7"/>
			<path class="st10" d="M431,728.9c-0.4,0-0.7-0.1-1-0.4c-0.3-0.2-0.4-0.6-0.4-1.1c0-0.4,0.1-0.7,0.4-1c0.3-0.3,0.6-0.4,1-0.4
				c0.4,0,0.7,0.1,1,0.4c0.3,0.3,0.4,0.6,0.4,1c0,0.5-0.1,0.8-0.4,1.1C431.8,728.8,431.4,728.9,431,728.9"/>
			<path class="st10" d="M443.9,725.7c0,0.3-0.1,0.7-0.3,1c-0.2,0.4-0.5,0.7-0.9,1.1c-0.4,0.3-0.9,0.6-1.5,0.8
				c-0.6,0.2-1.3,0.3-2,0.3c-1.6,0-2.9-0.5-3.8-1.4c-0.9-0.9-1.3-2.2-1.3-3.8c0-1.1,0.2-2,0.6-2.8c0.4-0.8,1-1.4,1.8-1.9
				c0.8-0.4,1.7-0.7,2.8-0.7c0.7,0,1.3,0.1,1.9,0.3c0.6,0.2,1,0.5,1.4,0.8c0.4,0.3,0.7,0.6,0.9,1c0.2,0.4,0.3,0.7,0.3,1
				c0,0.3-0.1,0.6-0.3,0.8c-0.2,0.2-0.5,0.3-0.8,0.3c-0.2,0-0.4-0.1-0.5-0.2c-0.1-0.1-0.3-0.3-0.5-0.5c-0.3-0.5-0.6-0.8-1-1.1
				c-0.3-0.2-0.8-0.4-1.3-0.4c-0.8,0-1.4,0.3-1.9,0.9c-0.5,0.6-0.7,1.4-0.7,2.5c0,0.5,0.1,0.9,0.2,1.3c0.1,0.4,0.3,0.8,0.5,1
				c0.2,0.3,0.5,0.5,0.8,0.7c0.3,0.2,0.7,0.2,1.1,0.2c0.5,0,1-0.1,1.3-0.4c0.4-0.2,0.7-0.6,1-1.1c0.2-0.3,0.3-0.5,0.5-0.7
				c0.2-0.2,0.4-0.3,0.7-0.3c0.3,0,0.6,0.1,0.8,0.4C443.8,725.2,443.9,725.4,443.9,725.7"/>
			<path class="st10" d="M455.1,723.6c0,0.8-0.1,1.5-0.4,2.1c-0.2,0.7-0.6,1.2-1,1.7c-0.5,0.5-1,0.8-1.6,1.1
				c-0.6,0.2-1.3,0.4-2.1,0.4c-0.8,0-1.5-0.1-2.1-0.4c-0.6-0.2-1.2-0.6-1.6-1.1c-0.5-0.5-0.8-1-1.1-1.7c-0.2-0.6-0.3-1.4-0.3-2.1
				c0-0.8,0.1-1.5,0.4-2.2c0.2-0.7,0.6-1.2,1-1.7c0.5-0.5,1-0.8,1.6-1.1c0.6-0.2,1.3-0.4,2.1-0.4c0.8,0,1.5,0.1,2.1,0.4
				c0.6,0.3,1.2,0.6,1.6,1.1c0.5,0.5,0.8,1,1,1.7C455,722.2,455.1,722.9,455.1,723.6 M452.5,723.6c0-1.1-0.2-1.9-0.7-2.5
				c-0.5-0.6-1.1-0.9-1.9-0.9c-0.5,0-1,0.1-1.3,0.4c-0.4,0.3-0.7,0.6-0.9,1.2c-0.2,0.5-0.3,1.1-0.3,1.8c0,0.7,0.1,1.3,0.3,1.8
				c0.2,0.5,0.5,0.9,0.9,1.2c0.4,0.3,0.8,0.4,1.4,0.4c0.8,0,1.4-0.3,1.9-0.9C452.3,725.5,452.5,724.7,452.5,723.6"/>
			<path class="st10" d="M465,723.8v3.4c0,0.5-0.1,1-0.4,1.2c-0.3,0.3-0.6,0.4-1,0.4c-0.4,0-0.7-0.1-1-0.4c-0.2-0.3-0.4-0.7-0.4-1.2
				v-4.1c0-0.7,0-1.2-0.1-1.5c0-0.4-0.2-0.7-0.4-0.9c-0.2-0.2-0.5-0.4-0.9-0.4c-0.8,0-1.4,0.3-1.7,0.9c-0.3,0.6-0.4,1.4-0.4,2.5v3.5
				c0,0.5-0.1,0.9-0.4,1.2c-0.3,0.3-0.6,0.4-1,0.4c-0.4,0-0.7-0.1-1-0.4c-0.3-0.3-0.4-0.7-0.4-1.2v-7.4c0-0.5,0.1-0.9,0.3-1.1
				c0.2-0.3,0.5-0.4,0.9-0.4c0.4,0,0.7,0.1,0.9,0.4c0.2,0.2,0.4,0.6,0.4,1v0.2c0.5-0.5,0.9-0.9,1.4-1.2c0.5-0.3,1.1-0.4,1.7-0.4
				c0.7,0,1.2,0.1,1.7,0.4c0.5,0.3,0.9,0.7,1.2,1.2c0.4-0.5,0.9-0.9,1.4-1.2c0.5-0.3,1.1-0.4,1.7-0.4c0.7,0,1.3,0.1,1.8,0.4
				c0.5,0.3,0.9,0.7,1.1,1.2c0.2,0.5,0.3,1.2,0.3,2.2v5.1c0,0.5-0.1,1-0.4,1.2c-0.2,0.3-0.6,0.4-1,0.4c-0.4,0-0.7-0.1-1-0.4
				c-0.3-0.3-0.4-0.7-0.4-1.2v-4.4c0-0.6,0-1-0.1-1.3c0-0.3-0.2-0.6-0.4-0.8c-0.2-0.2-0.5-0.3-1-0.3c-0.3,0-0.7,0.1-1,0.3
				c-0.3,0.2-0.5,0.5-0.7,0.8C465.1,721.9,465,722.7,465,723.8"/>
		</g>
		<g>
			<path class="st10" d="M344.3,723C344.3,723,344.3,723,344.3,723C344.3,723,344.3,723,344.3,723z"/>
			<path class="st10" d="M344.5,723.8C344.5,723.8,344.5,723.8,344.5,723.8c0-0.2-0.1-0.5-0.1-0.7
				C344.4,723.4,344.4,723.6,344.5,723.8z"/>
			<path class="st10" d="M345.3,726.3C345.3,726.2,345.3,726.2,345.3,726.3C345.3,726.2,345.3,726.2,345.3,726.3z"/>
			<path class="st10" d="M345.2,726.1c0,0,0-0.1-0.1-0.1C345.2,726,345.2,726,345.2,726.1z"/>
			<path class="st10" d="M344.7,724.8c0.1,0.4,0.3,0.8,0.5,1.2C345,725.6,344.8,725.2,344.7,724.8
				C344.7,724.8,344.7,724.8,344.7,724.8z"/>
			<path class="st10" d="M354.4,713.1c0.5,0,0.9,0,1.3,0.1l0.1-0.8c0,0-1.2-0.4-2.7-0.2l-0.1-0.4c0.5-0.1,0.8-0.5,0.8-1
				c0-0.6-0.5-1.1-1.1-1.1c-0.6,0-1.1,0.5-1.1,1.1c0,0.5,0.4,0.9,0.8,1l0.1,0.5c-1.6,0.2-2.9,0.9-2.9,0.9l0.2,0.7
				c1-0.3,1.8-0.5,2.6-0.6C353.3,713.1,353.9,713.1,354.4,713.1z"/>
			<path class="st10" d="M345.3,716.9L345.3,716.9c0-0.1,0.1-0.1,0.1-0.2l-0.3-0.2l-0.5-0.4c0,0-0.8,0.7-1.4,2c0,0-0.1-0.1-0.1-0.1
				c-0.2-0.2-0.4-0.3-0.8-0.3c0,0,0,0,0,0c-0.2,0-0.3-0.1-0.4-0.1c0.1-0.1,0.1-0.3,0.1-0.4c0-0.4-0.3-0.7-0.7-0.7
				c-0.4,0-0.7,0.3-0.7,0.7c0,0.4,0.3,0.7,0.7,0.7c0.1,0,0.1,0,0.2,0c0.2,0.2,0.4,0.3,0.8,0.3c0.2,0,0.3,0,0.4,0.2
				c0.1,0.1,0.1,0.3,0.2,0.4c0,0,0,0,0,0c-0.4,1.2-0.3,2.7-0.3,2.7l1.1,0c0-0.5,0.1-1.5,0.4-2.2C344.6,717.9,345.3,717,345.3,716.9z
				"/>
			<path class="st10" d="M363.6,714c-0.4,0-0.7,0.3-0.7,0.7c0,0.1,0,0.1,0,0.2c-0.2,0.2-0.3,0.4-0.3,0.8c0,0.2,0,0.3-0.2,0.4
				c-0.1,0.1-0.2,0.1-0.3,0.1c-0.8-1.1-1.8-1.8-1.8-1.8l-0.8,0.8c0.6,0.5,1.2,1.2,1.7,2c0.4,0.6,0.8,1.3,1.1,2l1-0.5
				c0,0-0.5-1.2-1.1-2.2c0.1,0,0.2-0.1,0.3-0.2c0.2-0.2,0.3-0.4,0.3-0.8c0-0.2,0.1-0.3,0.1-0.4c0.1,0.1,0.3,0.1,0.4,0.1
				c0.4,0,0.7-0.3,0.7-0.7C364.2,714.3,363.9,714,363.6,714z"/>
			<path class="st10" d="M360.9,723.2c-1.4,0.7-3.7,1.6-6.8,2c-1.2,0.2-2.4,0.2-3.4,0.2c-1.4,0-2.6-0.1-3.6-0.2
				c-1.1-0.1-1.9-0.3-2.4-0.4c0.1,0.4,0.3,0.8,0.5,1.2c0,0,0,0,0,0c0,0,0,0.1,0.1,0.1c0,0,0,0.1,0.1,0.1c0,0,0,0,0,0
				c0.3,0.6,0.7,1.1,1.1,1.5c1.4,1.6,2.9,1.8,2.9,1.8l0,0l0,0c0,0,1.3,0.4,3.3,0.4c1.9,0,3.9-0.4,5.7-1.2c1.3-0.7,2.6-1.7,3.3-2.7
				c0.5-0.7,0.8-1.5,1.1-2.3c0.1-0.4,0.2-1.1,0.1-1.8C362.4,722.4,361.8,722.8,360.9,723.2z"/>
			<path class="st10" d="M345.7,717.3c0,0.1-0.7,0.9-1.1,2.3c-0.4,1-0.3,2.4-0.3,2.5v0c0,0.3,0,0.7,0.1,1c0,0,0,0,0,0
				c0,0,0,0.1,0,0.1c0,0.2,0.1,0.5,0.1,0.7c0.7,0.2,4.9,1.2,9.5,0.5c2.9-0.4,5.1-1.3,6.5-1.9c1.1-0.5,1.8-1,2.1-1.2
				c-0.3-1-1-2.6-1.7-3.6c-2-2.9-4.2-3.6-5.3-3.8c-0.4-0.1-0.8-0.1-1.2-0.1c-0.4,0-1,0-1.7,0.1c-0.7,0.1-1.6,0.3-2.5,0.6
				c-1.3,0.5-2.6,1.2-3.5,2l0,0C346.4,716.6,346.1,716.8,345.7,717.3z M358,716.6c1,0,1.7,0.8,1.7,1.7c0,1-0.8,1.7-1.7,1.7
				c-1,0-1.7-0.8-1.7-1.7C356.3,717.4,357.1,716.6,358,716.6z M349.8,716.5c1.6,0,2.8,1.3,2.8,2.8c0,1.6-1.3,2.8-2.8,2.8
				c-1.6,0-2.8-1.3-2.8-2.8C347,717.8,348.2,716.5,349.8,716.5z"/>
		</g>
	</g>
</g>
</svg>
